<svg xmlns="http://www.w3.org/2000/svg" viewBox="0 0 93.87 99"><defs><style>.cls-1{fill:#fff;}</style></defs><title>Middel 1</title><g id="Laag_2" data-name="Laag 2"><g id="Laag_1-2" data-name="Laag 1"><g id="Laag_2-2" data-name="Laag 2"><g id="Laag_1-2-2" data-name="Laag 1-2"><path class="cls-1" d="M1.72,81h1.4v9H5.68v1h-4Z"/><path class="cls-1" d="M7.37,81h3.89v1H8.77v3.32h2v1h-2V90h2.51v1H7.37Z"/><path class="cls-1" d="M13.15,81h1L17,87.62V81h1.17V91h-.89l-2.89-6.84V91H13.15Z"/><path class="cls-1" d="M20.42,81h.95l2.85,6.66V81h1.16V91h-.89l-2.88-6.84V91H20.42Z"/><path class="cls-1" d="M27.69,81h3.88v1H29.08v3.32h2v1h-2V90H31.6v1H27.69Z"/><path class="cls-1" d="M33.45,81h2a3.43,3.43,0,0,1,2.24.62,2.6,2.6,0,0,1,.71,2c0,1.29-.41,2.07-1.24,2.34l1.42,5H37.25l-1.31-4.7H34.85V91h-1.4Zm1.94,4.32A1.91,1.91,0,0,0,36.68,85a1.74,1.74,0,0,0,.39-1.3,2.82,2.82,0,0,0-.14-1,.91.91,0,0,0-.48-.52,2.3,2.3,0,0,0-1-.17h-.62v3.32Z"/><path class="cls-1" d="M41.64,82H39.82V81h5v1H43v9H41.64Z"/><path class="cls-1" d="M49.88,81h2.18a3,3,0,0,1,2.29.74A3.38,3.38,0,0,1,55,84v3.7a3.87,3.87,0,0,1-.66,2.47,2.7,2.7,0,0,1-2.2.81H49.88Zm2.19,9a1.59,1.59,0,0,0,1.06-.28,1.3,1.3,0,0,0,.41-.78,10.49,10.49,0,0,0,.08-1.48V84.19a6.38,6.38,0,0,0-.11-1.31,1,1,0,0,0-.44-.67A2,2,0,0,0,52,82h-.75v8Z"/><path class="cls-1" d="M57.15,81H61v1H58.54v3.32h2v1h-2V90h2.52v1H57.15Z"/><path class="cls-1" d="M66.49,81h2a3.42,3.42,0,0,1,2.23.62,2.56,2.56,0,0,1,.72,2c0,1.29-.42,2.07-1.24,2.34l1.42,5H70.29L69,86.28H67.89V91h-1.4Zm1.93,4.32a2,2,0,0,0,1.3-.36,1.74,1.74,0,0,0,.39-1.3,2.82,2.82,0,0,0-.14-1,.91.91,0,0,0-.48-.52,2.3,2.3,0,0,0-1-.17h-.62v3.32Z"/><path class="cls-1" d="M75.18,87.44,73,81h1.3l1.54,4.84L77.36,81h1.31l-2.15,6.48V91H75.18Z"/><path class="cls-1" d="M80.76,90.21a4.29,4.29,0,0,1-.6-2.44V84.23a4.37,4.37,0,0,1,.59-2.5,3,3,0,0,1,4-.13,3.44,3.44,0,0,1,.59,2.16v.79H84.06v-.71A6.28,6.28,0,0,0,84,82.78a1,1,0,0,0-.31-.6,1.61,1.61,0,0,0-1.66,0,1.18,1.18,0,0,0-.37.67A7.08,7.08,0,0,0,81.57,84v4a4.84,4.84,0,0,0,.12,1.2,1,1,0,0,0,.4.62,1.52,1.52,0,0,0,.78.18A1,1,0,0,0,84,89.15v0A7,7,0,0,0,84.06,88v-.74h1.32V88a4,4,0,0,1-.56,2.3,2.25,2.25,0,0,1-2,.8A2.35,2.35,0,0,1,80.76,90.21Z"/><path class="cls-1" d="M87.46,81h1.4v4.73L91.16,81h1.3l-2,4.42,2.3,5.6H91.42l-1.92-4.7-.64,1.16V91h-1.4Z"/><path class="cls-1" d="M15.4,99a1.62,1.62,0,0,1-.72-.17,1.44,1.44,0,0,1-.5-.45,2.29,2.29,0,0,1-.27-.62,3,3,0,0,1-.09-.73A3,3,0,0,1,14,96a1.55,1.55,0,0,1,.53-.71A1.44,1.44,0,0,1,15.4,95a1.29,1.29,0,0,1,.72.16,1.35,1.35,0,0,1,.44.45l-.34.2a1.14,1.14,0,0,0-.34-.35.8.8,0,0,0-.48-.12,1.18,1.18,0,0,0-.55.14,1.15,1.15,0,0,0-.37.39,1.93,1.93,0,0,0-.2.52,2.76,2.76,0,0,0-.06.57,2.72,2.72,0,0,0,.12.8,1.25,1.25,0,0,0,.39.59,1,1,0,0,0,.67.23.87.87,0,0,0,.65-.25,1,1,0,0,0,.25-.69v-.23h-.7V97.1h1.1v.41a1.43,1.43,0,0,1-.37,1.06A1.22,1.22,0,0,1,15.4,99Z"/><path class="cls-1" d="M18.66,98.88v-3.8h1.39a1.18,1.18,0,0,1,.9.3A1.16,1.16,0,0,1,21,96.8a1.1,1.1,0,0,1-.71.37l.84,1.71h-.42l-.81-1.7H19v1.7Zm.38-2h1a.81.81,0,0,0,.61-.2.66.66,0,0,0,.19-.5.78.78,0,0,0-.19-.5.76.76,0,0,0-.61-.22H19Z"/><path class="cls-1" d="M25.31,98.88l-.35-1H23.48l-.33,1h-.4l1.32-3.8h.29l1.33,3.8Zm-.47-1.32L24.32,96c-.06-.16-.09-.27-.11-.34v.14a.66.66,0,0,1-.06.2l-.52,1.52Z"/><path class="cls-1" d="M27.41,98.88v-3.8h2.21v.37H27.79v1.29H29v.36H27.79v1.78Z"/><path class="cls-1" d="M31.39,98.88v-3.8h.38v3.8Z"/><path class="cls-1" d="M34.89,99a1.36,1.36,0,0,1-.8-.23,1.18,1.18,0,0,1-.47-.54L34,98a1,1,0,0,0,.36.41,1.06,1.06,0,0,0,.55.15.9.9,0,0,0,.59-.18.64.64,0,0,0,.22-.52.68.68,0,0,0-.24-.53,2.25,2.25,0,0,0-.62-.35l-.41-.17c-.11-.06-.22-.14-.34-.22a.87.87,0,0,1-.36-.73.81.81,0,0,1,.3-.63,1.21,1.21,0,0,1,.82-.25,1.29,1.29,0,0,1,.69.17.73.73,0,0,1,.36.43l-.35.12a.62.62,0,0,0-.26-.27.83.83,0,0,0-.46-.11.8.8,0,0,0-.52.15.44.44,0,0,0-.19.39.48.48,0,0,0,.07.26.64.64,0,0,0,.2.2,1.17,1.17,0,0,0,.27.15l.33.15a2.87,2.87,0,0,1,.4.18,2.62,2.62,0,0,1,.34.24,1.09,1.09,0,0,1,.36.81,1,1,0,0,1-.33.78A1.35,1.35,0,0,1,34.89,99Z"/><path class="cls-1" d="M39.38,99a1.39,1.39,0,0,1-.72-.17,1.28,1.28,0,0,1-.5-.45,2.29,2.29,0,0,1-.27-.62A3.22,3.22,0,0,1,37.8,97a2.66,2.66,0,0,1,.2-1,1.55,1.55,0,0,1,.53-.71,1.41,1.41,0,0,1,.89-.28,1.29,1.29,0,0,1,.72.16,1.35,1.35,0,0,1,.44.45l-.34.2a1.14,1.14,0,0,0-.34-.35.82.82,0,0,0-.48-.12,1.18,1.18,0,0,0-.55.14,1.15,1.15,0,0,0-.37.39,1.93,1.93,0,0,0-.2.52,2.76,2.76,0,0,0-.06.57,3.09,3.09,0,0,0,.11.8,1.41,1.41,0,0,0,.4.59,1,1,0,0,0,.67.23.94.94,0,0,0,.87-.48l.34.13a1.28,1.28,0,0,1-.45.5A1.34,1.34,0,0,1,39.38,99Z"/><path class="cls-1" d="M44.65,98.88v-1.8H42.79v1.8h-.38v-3.8h.38v1.65h1.86V95.08H45v3.8Z"/><path class="cls-1" d="M52,98.77a1.61,1.61,0,0,1-1.48,0,1.2,1.2,0,0,1-.49-.46,2.62,2.62,0,0,1-.26-.62,3.19,3.19,0,0,1,0-1.42,2.62,2.62,0,0,1,.26-.62,1.35,1.35,0,0,1,.49-.46,1.67,1.67,0,0,1,1.48,0,1.35,1.35,0,0,1,.49.46,2.26,2.26,0,0,1,.26.62,2.85,2.85,0,0,1,0,1.42,2.26,2.26,0,0,1-.26.62A1.2,1.2,0,0,1,52,98.77Zm-.74-.17a1,1,0,0,0,.92-.53,1.87,1.87,0,0,0,.2-.51,2.89,2.89,0,0,0,0-1.37A1.23,1.23,0,0,0,52,95.6a1,1,0,0,0-.69-.24,1.18,1.18,0,0,0-.55.14,1.15,1.15,0,0,0-.37.39,1.91,1.91,0,0,0-.19.52A2.57,2.57,0,0,0,50,97a2.65,2.65,0,0,0,.11.79,1.28,1.28,0,0,0,.38.59,1,1,0,0,0,.72.22Z"/><path class="cls-1" d="M57.35,98.88H57L55.19,96,55,95.78v3.1h-.38v-3.8H55L56.81,98l.16.26V95.08h.38Z"/><path class="cls-1" d="M60.59,95.45v3.43h-.38V95.45h-1v-.37h2.47v.37Z"/><path class="cls-1" d="M63.93,98.88l-.74-3.8h.41l.46,2.61.06.38a1,1,0,0,1,.1-.37L65,95.08h.29L66,97.7a2.81,2.81,0,0,1,.08.31l.07-.32.55-2.61h.39l-.82,3.8H66l-.81-2.72a1.06,1.06,0,0,0-.1-.34,2.19,2.19,0,0,1-.1.34l-.82,2.72Z"/><path class="cls-1" d="M68.83,98.88v-3.8H71v.37H69.21v1.29h1.2v.36h-1.2v1.42h1.9v.36Z"/><path class="cls-1" d="M73,98.88v-3.8h1.39a1.19,1.19,0,0,1,.9.3,1.14,1.14,0,0,1,0,1.42,1.23,1.23,0,0,1-.71.37l.84,1.71H75l-.82-1.7h-.85v1.7Zm.38-2h1a.81.81,0,0,0,.61-.2.66.66,0,0,0,.19-.5.78.78,0,0,0-.19-.5.76.76,0,0,0-.61-.22h-1Z"/><path class="cls-1" d="M77.46,98.88v-3.8h1.39a1.17,1.17,0,0,1,.91.32,1.18,1.18,0,0,1,.29.8A1.1,1.1,0,0,1,79,97.32H77.85v1.57ZM78.88,97a.73.73,0,0,0,.8-.77.86.86,0,0,0-.18-.54.77.77,0,0,0-.62-.24h-1V97Z"/><path class="cls-1" d="M75,46.9c5.4,3.3,9.12,5.35,10.69,5.76l8.18-8.17c-2-.68-7.76-4.19-12.84-7.07-4.14-2.36-7.86-3.36-11.32-1.89l-.15-.16A13.37,13.37,0,0,0,68,21.55V11a11.65,11.65,0,0,0-1-1.11C63.79,6.61,60.18,5.3,56.41,5.72A17.1,17.1,0,0,0,49,8.7c-.44-.49-.89-1-1.37-1.46C43.39,3.06,39,.77,34.67,0V10.58a20.08,20.08,0,0,0-6.38-.09,24.94,24.94,0,0,0-10.47,4.17,50.4,50.4,0,0,0-7.76,6.52A101.2,101.2,0,0,0,0,32.71L17.82,50.53V44.18L34.67,61h0C42,53.9,44,52,49.23,46.9L43,40.63c-2.28,2.43-4,4.36-6.14,6.53L34.67,45,17.82,28.15V34.5l-4.09-4.1A24.11,24.11,0,0,1,17,26.47c.26-.26.53-.5.79-.74C23.06,20.94,29,19.83,34.67,23V12.39A20.53,20.53,0,0,1,39.35,16l.62.67c6.35,6.75,6.91,13.63,3,19.74l6.26,6.26L67.15,60.58,68,59.7V70.29l7-7-7-7V45.63l-6.85-6.85,2.42-2.41A7.71,7.71,0,0,1,68,33.89V44.47c1.9-.21,4,.53,7,2.43m-16.39-17L55.41,33l-.51-.51-9.23-9.24A27.22,27.22,0,0,1,49,19.39a10.31,10.31,0,0,1,5-3,6.22,6.22,0,0,1,5.74,2c3.09,3.09,2.73,7.44-1.25,11.42"/></g></g></g></g></svg>