<?xml version="1.0" encoding="utf-8"?>
<!-- Generator: Adobe Illustrator 23.0.0, SVG Export Plug-In . SVG Version: 6.00 Build 0)  -->
<svg version="1.1" id="Laag_1" xmlns="http://www.w3.org/2000/svg" xmlns:xlink="http://www.w3.org/1999/xlink" x="0px" y="0px"
	 viewBox="0 0 390.5 86.8" style="enable-background:new 0 0 390.5 86.8;" xml:space="preserve">
<style type="text/css">
	.st0{fill:#FFFFFF;}
</style>
<title>Middel 28</title>
<g>
	<g id="Laag_1-2">
		<path class="st0" d="M92.6,58c6.7,4.1,11.3,6.6,13.2,7.1L115.9,55c-2.5-0.8-9.6-5.2-15.9-8.7c-5.1-2.9-9.7-4.2-14-2.3l-0.2-0.2
			c2.6-5.6,1.9-12.2-1.8-17.1V13.5c-0.4-0.5-0.8-0.9-1.2-1.4c-4-4-8.5-5.6-13.1-5.1c-3.3,0.5-6.5,1.7-9.2,3.7
			c-0.5-0.6-1.1-1.2-1.7-1.8C53.6,3.8,48.2,1,42.8,0v13.1c-2.6-0.5-5.2-0.5-7.8-0.1c-4.7,0.7-9.1,2.4-13,5.1
			c-3.5,2.4-6.7,5.1-9.6,8.1C7.9,30.6,3.8,35.4,0,40.4l22,22v-7.8l20.8,20.8l0,0c9-8.8,11.5-11.2,18-17.5l-7.7-7.7
			c-2.8,3-4.9,5.4-7.6,8.1l-2.7-2.7L22,34.8v7.8l-5-5.1c1.2-1.8,2.5-3.4,4-4.9c0.3-0.3,0.6-0.6,1-0.9c6.5-5.9,13.8-7.3,20.8-3.4
			V15.3c2.1,1.2,4.1,2.7,5.8,4.4c0.3,0.3,0.5,0.6,0.8,0.8c7.9,8.3,8.6,16.8,3.7,24.4l7.7,7.8L83,74.8l1.1-1.1v13.1l8.7-8.7l-8.7-8.7
			V56.4l-8.5-8.5l3-3c1.8-1.8,3.6-2.8,5.5-3.1V55C86.4,54.7,89.1,55.7,92.6,58 M72.4,37l-3.9,3.8l-0.6-0.6L56.4,28.8
			c1.2-1.7,2.6-3.3,4.1-4.8c1.7-1.8,3.8-3.1,6.2-3.6c2.6-0.5,5.3,0.5,7.1,2.5C77.7,26.7,77.3,32,72.4,37"/>
		<path class="st0" d="M376.7,47.8h3.6v-9.2l1.7-3l5,12.2h3.5l-6-14.5l5.1-11.5h-3.4l-6,12.3V21.8h-3.6L376.7,47.8z M364.8,48.1
			c2.4,0,4.1-0.7,5.1-2.1c1.1-1.8,1.6-3.9,1.5-6v-1.9h-3.4v1.9c0,1,0,1.9-0.2,2.9c-0.1,0.6-0.4,1.2-0.9,1.7c-0.6,0.4-1.3,0.7-2,0.6
			c-0.7,0-1.4-0.1-2-0.5c-0.5-0.4-0.9-1-1-1.6c-0.2-1-0.4-2.1-0.3-3.1V29.8c0-1,0.1-2,0.2-3c0.1-0.7,0.4-1.3,1-1.7
			c0.6-0.5,1.4-0.7,2.2-0.6c0.7-0.1,1.5,0.1,2.1,0.6c0.4,0.4,0.7,0.9,0.8,1.5c0.1,0.9,0.2,1.8,0.2,2.8v1.8h3.4v-2
			c0.1-2-0.4-3.9-1.5-5.6c-1-1.3-2.7-1.9-5-1.9c-2.6,0-4.4,0.7-5.5,2.2s-1.5,3.6-1.5,6.5v9.2c-0.1,2.2,0.4,4.4,1.6,6.3
			C360.4,47.4,362.3,48.1,364.8,48.1 M345,47.8h3.5v-9.2l5.6-16.8h-3.4l-4,12.5l-4-12.5h-3.4l5.6,16.8L345,47.8z M326,33v-8.6h1.6
			c0.9,0,1.7,0.1,2.5,0.4c0.6,0.3,1,0.8,1.2,1.4c0.3,0.8,0.4,1.7,0.4,2.5c0.1,1.2-0.2,2.4-1,3.4c-1,0.7-2.2,1-3.4,0.9H326z
			 M322.4,47.8h3.6V35.6h2.8l3.4,12.2h3.5l-3.7-13c2.1-0.7,3.2-2.7,3.2-6.1c0-2.4-0.6-4.2-1.8-5.3s-3.2-1.6-5.8-1.6h-5.2L322.4,47.8
			z M298.1,47.8h10.1v-2.6h-6.6v-9.5h5.2v-2.6h-5.2v-8.6h6.5v-2.7h-10.1L298.1,47.8z M282.9,45.2V24.5h2c0.9-0.1,1.9,0.1,2.7,0.6
			c0.6,0.4,1,1,1.1,1.7c0.2,1.1,0.3,2.3,0.3,3.4v8.4c0,1.3,0,2.6-0.2,3.8c-0.1,0.8-0.5,1.5-1.1,2c-0.8,0.6-1.8,0.8-2.7,0.7
			L282.9,45.2z M279.3,47.8h5.9c2.7,0,4.5-0.7,5.7-2.1s1.7-3.5,1.7-6.4v-9.6c0-2.7-0.6-4.7-1.8-6s-3.1-1.9-6-1.9h-5.6V47.8z
			 M257.9,47.8h3.6V24.5h4.6v-2.7h-13v2.7h4.7L257.9,47.8z M240.3,33v-8.6h1.6c0.9,0,1.7,0.1,2.5,0.4c0.6,0.3,1,0.8,1.2,1.4
			c0.3,0.8,0.4,1.7,0.4,2.5c0.1,1.2-0.2,2.4-1,3.4c-1,0.7-2.2,1-3.4,0.9H240.3z M236.6,47.8h3.6V35.6h2.8l3.4,12.2h3.5l-3.7-13
			c2.1-0.7,3.2-2.7,3.2-6.1c0-2.4-0.6-4.2-1.9-5.3s-3.2-1.6-5.8-1.6h-5.2L236.6,47.8z M221.6,47.8h10.1v-2.6h-6.5v-9.5h5.2v-2.6
			h-5.2v-8.6h6.4v-2.7h-10L221.6,47.8z M202.8,47.8h3.1V30.1l7.5,17.7h2.3v-26h-3v17.3l-7.4-17.3h-2.5L202.8,47.8z M183.9,47.8h3.1
			V30.1l7.5,17.7h2.3v-26h-3v17.3l-7.4-17.3h-2.5L183.9,47.8z M168.9,47.8H179v-2.6h-6.5v-9.5h5.2v-2.6h-5.2v-8.6h6.5v-2.7h-10.1
			L168.9,47.8z M154.2,47.8h10.3v-2.6h-6.6V21.8h-3.6L154.2,47.8z"/>
		<path class="st0" d="M319,63.3v-4h2.7c0.6-0.1,1.2,0.2,1.6,0.6c0.3,0.4,0.5,0.9,0.5,1.4c0,0.5-0.2,1-0.5,1.4
			c-0.4,0.4-1,0.6-1.6,0.6H319z M319,68.3v-4.1h2.6c1.6,0.2,3-1,3.2-2.5c0.2-1.6-1-3-2.5-3.2c-0.2,0-0.5,0-0.7,0H318v9.9L319,68.3z
			 M307.4,59.3h2.7c0.6-0.1,1.2,0.2,1.6,0.6c0.3,0.4,0.5,0.8,0.5,1.3c0,0.5-0.2,0.9-0.5,1.3c-0.4,0.4-1,0.6-1.6,0.5h-2.7V59.3z
			 M307.4,68.3v-4.5h2.2l2.1,4.4h1.1l-2.2-4.5c0.7-0.1,1.4-0.4,1.9-1c0.4-0.5,0.6-1.1,0.6-1.8c0-0.7-0.2-1.4-0.7-1.9
			c-0.6-0.6-1.5-0.9-2.3-0.8h-3.6v9.9L307.4,68.3z M301.6,68.3v-1h-4.9v-3.7h3.1v-0.9h-3.1v-3.3h4.6v-0.9h-5.6v9.9L301.6,68.3z
			 M283.6,68.3l2.1-7.1c0.1-0.4,0.2-0.7,0.2-0.9c0.1,0.2,0.1,0.5,0.2,0.9l2.1,7.1h0.6l2.1-9.9h-1l-1.4,6.8l-0.2,0.8
			c0-0.2-0.1-0.4-0.2-0.8l-1.9-6.8h-0.7l-1.9,6.8l-0.3,1l-0.2-1l-1.2-6.8h-1l1.9,9.9L283.6,68.3z M277,59.4v-0.9h-6.4v0.9h2.7v8.9h1
			v-8.9H277z M265.9,58.5h-1v8.1l-0.4-0.7l-4.6-7.5h-1v9.9h1v-8c0,0,0.2,0.3,0.4,0.7l4.6,7.4h1L265.9,58.5z M248.2,67
			c-0.5-0.4-0.8-0.9-1-1.5c-0.2-0.7-0.3-1.4-0.3-2.1c0-0.5,0.1-1,0.2-1.5c0.1-0.5,0.3-0.9,0.5-1.3c0.2-0.4,0.6-0.8,1-1
			c1-0.6,2.3-0.5,3.2,0.2c0.5,0.4,0.8,0.9,1,1.5c0.2,0.6,0.3,1.3,0.3,2c0,0.5-0.1,1-0.2,1.5c-0.1,0.5-0.3,0.9-0.5,1.3
			c-0.2,0.4-0.6,0.8-1,1c-0.4,0.2-0.9,0.4-1.4,0.4C249.3,67.6,248.7,67.4,248.2,67 M253.2,66.8c0.3-0.5,0.5-1.1,0.7-1.6
			c0.3-1.2,0.3-2.5,0-3.7c-0.1-0.6-0.4-1.1-0.7-1.6c-0.3-0.5-0.7-0.9-1.3-1.2c-1.2-0.6-2.6-0.6-3.8,0c-0.5,0.3-1,0.7-1.3,1.2
			c-0.3,0.5-0.5,1-0.7,1.6c-0.3,1.2-0.3,2.5,0,3.7c0.1,0.6,0.4,1.1,0.7,1.6c0.3,0.5,0.7,0.9,1.3,1.2c1.2,0.6,2.6,0.6,3.8,0
			C252.4,67.7,252.8,67.3,253.2,66.8 M234,68.3v-9.9h-1v4.3h-4.8v-4.3h-1v9.9h1v-4.7h4.8v4.7H234z M221.3,68
			c0.5-0.3,0.9-0.8,1.2-1.3l-0.9-0.3c-0.5,0.8-1.3,1.3-2.3,1.2c-0.6,0-1.3-0.2-1.7-0.6c-0.5-0.4-0.8-0.9-1-1.5
			c-0.2-0.7-0.3-1.4-0.3-2.1c0-0.5,0.1-1,0.2-1.5c0.1-0.5,0.3-0.9,0.5-1.3c0.2-0.4,0.6-0.8,1-1c0.4-0.3,0.9-0.4,1.4-0.4
			c0.4,0,0.9,0.1,1.3,0.3c0.3,0.2,0.6,0.5,0.9,0.9l0.9-0.5c-0.3-0.5-0.7-0.9-1.1-1.2c-0.6-0.3-1.2-0.5-1.9-0.4
			c-0.8-0.1-1.7,0.2-2.4,0.7c-0.6,0.5-1.1,1.1-1.4,1.8c-0.3,0.8-0.4,1.7-0.4,2.5c0,0.6,0.1,1.3,0.2,1.9c0.1,0.6,0.4,1.1,0.7,1.6
			c0.3,0.5,0.8,0.9,1.3,1.2c0.6,0.3,1.2,0.4,1.9,0.4C220,68.5,220.7,68.3,221.3,68 M209.9,67.7c0.6-0.5,0.9-1.2,0.9-2
			c0-0.4-0.1-0.8-0.2-1.2c-0.2-0.4-0.4-0.7-0.7-0.9c-0.3-0.2-0.6-0.4-0.9-0.6c-0.3-0.2-0.7-0.3-1-0.5c-0.4-0.1-0.6-0.3-0.9-0.4
			c-0.2-0.1-0.5-0.2-0.7-0.4c-0.2-0.1-0.4-0.3-0.5-0.5c-0.1-0.2-0.2-0.4-0.2-0.7c0-0.4,0.2-0.8,0.5-1c0.4-0.3,0.9-0.4,1.4-0.4
			c0.4,0,0.8,0.1,1.2,0.3c0.3,0.2,0.5,0.4,0.7,0.7l0.9-0.3c-0.2-0.5-0.5-0.9-0.9-1.1c-0.5-0.3-1.2-0.5-1.8-0.4
			c-0.8,0-1.5,0.2-2.1,0.7c-0.5,0.4-0.8,1-0.8,1.6c0,0.3,0.1,0.7,0.2,1c0.2,0.3,0.4,0.6,0.7,0.8c0.3,0.2,0.6,0.4,0.9,0.6
			c0.3,0.2,0.7,0.3,1.1,0.5c0.6,0.2,1.1,0.5,1.6,0.9c0.4,0.3,0.6,0.9,0.6,1.4c0,0.5-0.2,1-0.6,1.3c-0.4,0.3-1,0.5-1.5,0.5
			c-0.5,0-1-0.1-1.4-0.4c-0.4-0.2-0.7-0.6-0.9-1l-0.9,0.3c0.2,0.6,0.6,1.1,1.2,1.4c0.6,0.4,1.3,0.6,2.1,0.6
			C208.5,68.5,209.3,68.3,209.9,67.7 M199.6,58.5h-1v9.8h1V58.5z M189.3,68.3v-4.6h3.2v-0.9h-3.2v-3.3h4.7v-0.9h-5.8v9.9L189.3,68.3
			z M178.4,64.9l1.3-3.9c0.1-0.2,0.1-0.3,0.2-0.5l0.1-0.4c0.1,0.3,0.2,0.6,0.3,0.9l1.4,3.9L178.4,64.9z M183.8,68.3l-3.4-9.9h-0.8
			l-3.4,9.9h1l0.9-2.6h3.8l0.9,2.6H183.8z M166.6,59.3h2.6c0.6-0.1,1.2,0.2,1.6,0.6c0.3,0.4,0.5,0.8,0.5,1.3c0,0.5-0.2,0.9-0.5,1.3
			c-0.4,0.4-1,0.6-1.6,0.5h-2.6L166.6,59.3z M166.6,68.3v-4.4h2.2l2.1,4.4h1.1l-2.2-4.5c0.7-0.1,1.4-0.4,1.8-1
			c0.8-1.1,0.8-2.6-0.1-3.7c-0.6-0.6-1.5-0.9-2.3-0.8h-3.6v9.9L166.6,68.3z M159.6,67.5c0.7-0.8,1-1.7,0.9-2.7v-1.1h-2.9v0.9h1.8
			v0.6c0,0.7-0.2,1.3-0.6,1.8c-0.5,0.5-1.1,0.7-1.7,0.7c-0.6,0-1.3-0.2-1.8-0.6c-0.5-0.4-0.8-0.9-1-1.5c-0.3-1.2-0.4-2.4-0.1-3.6
			c0.1-0.5,0.3-0.9,0.5-1.3c0.2-0.4,0.6-0.8,1-1c0.4-0.3,0.9-0.4,1.4-0.4c0.4,0,0.9,0.1,1.3,0.3c0.3,0.2,0.6,0.5,0.9,0.9l0.9-0.5
			c-0.6-1.1-1.8-1.7-3-1.6c-0.8,0-1.6,0.2-2.3,0.7c-0.6,0.5-1.1,1.1-1.4,1.8c-0.5,1.4-0.5,3-0.2,4.4c0.1,0.6,0.4,1.1,0.7,1.6
			c0.3,0.5,0.8,0.9,1.3,1.2c0.6,0.3,1.2,0.4,1.9,0.4C158.1,68.5,159,68.2,159.6,67.5"/>
	</g>
</g>
</svg>
