<svg xmlns="http://www.w3.org/2000/svg" viewBox="0 0 93.82 98.95"><defs><style>.cls-1{fill:#1e1e1c;}</style></defs><title>Middel 27</title><g id="Laag_2" data-name="Laag 2"><g id="Laag_1-2" data-name="Laag 1"><path class="cls-1" d="M1.72,81h1.4v9H5.68v1h-4Z"/><path class="cls-1" d="M7.37,81h3.89v1H8.77v3.32h2v1h-2V90h2.51v1H7.37Z"/><path class="cls-1" d="M13.15,81h1L17,87.62V81h1.17V91h-.89l-2.89-6.84V91H13.15Z"/><path class="cls-1" d="M20.42,81h.95l2.85,6.66V81h1.16V91h-.89l-2.88-6.84V91H20.42Z"/><path class="cls-1" d="M27.69,81h3.88v1H29.08v3.32h2v1h-2V90H31.6v1H27.69Z"/><path class="cls-1" d="M33.45,81h2a3.39,3.39,0,0,1,2.24.62,2.61,2.61,0,0,1,.71,2c0,1.29-.41,2.07-1.24,2.34l1.42,5H37.25l-1.31-4.7H34.85V91h-1.4Zm1.94,4.32a1.88,1.88,0,0,0,1.29-.36,1.73,1.73,0,0,0,.39-1.3,2.77,2.77,0,0,0-.14-1,.91.91,0,0,0-.48-.52,2.33,2.33,0,0,0-1-.17h-.62v3.32Z"/><path class="cls-1" d="M41.64,82H39.82V81h5v1H43v9H41.64Z"/><path class="cls-1" d="M49.88,81h2.18a3,3,0,0,1,2.29.74A3.38,3.38,0,0,1,55,84V87.7a3.86,3.86,0,0,1-.66,2.47,2.69,2.69,0,0,1-2.2.81H49.88Zm2.19,9a1.6,1.6,0,0,0,1.06-.28,1.29,1.29,0,0,0,.41-.78,10.43,10.43,0,0,0,.08-1.48V84.19a6.18,6.18,0,0,0-.11-1.31,1,1,0,0,0-.44-.67A2,2,0,0,0,52,82h-.75v8Z"/><path class="cls-1" d="M57.15,81H61v1H58.54v3.32h2v1h-2V90h2.52v1H57.15Z"/><path class="cls-1" d="M66.49,81h2a3.36,3.36,0,0,1,2.23.62,2.58,2.58,0,0,1,.72,2c0,1.29-.42,2.07-1.24,2.34l1.42,5H70.29L69,86.28H67.89V91h-1.4Zm1.93,4.32a1.91,1.91,0,0,0,1.3-.36,1.73,1.73,0,0,0,.39-1.3,2.77,2.77,0,0,0-.14-1,.91.91,0,0,0-.48-.52,2.33,2.33,0,0,0-1-.17h-.62v3.32Z"/><path class="cls-1" d="M75.18,87.44,73,81h1.3l1.54,4.84L77.36,81h1.31l-2.15,6.48V91H75.18Z"/><path class="cls-1" d="M80.76,90.21a4.29,4.29,0,0,1-.6-2.44V84.23a4.34,4.34,0,0,1,.59-2.5,3,3,0,0,1,4-.13,3.41,3.41,0,0,1,.59,2.16v.79H84.06v-.71A5.79,5.79,0,0,0,84,82.78a1,1,0,0,0-.31-.6,1.26,1.26,0,0,0-.81-.22,1.29,1.29,0,0,0-.85.24,1.17,1.17,0,0,0-.37.67A6.93,6.93,0,0,0,81.57,84v4a4.71,4.71,0,0,0,.12,1.2,1.06,1.06,0,0,0,.4.62,1.45,1.45,0,0,0,.78.18A1,1,0,0,0,84,89.12,8,8,0,0,0,84.06,88v-.74h1.32V88a4,4,0,0,1-.56,2.3,2.25,2.25,0,0,1-2,.8A2.36,2.36,0,0,1,80.76,90.21Z"/><path class="cls-1" d="M87.46,81h1.4v4.73L91.16,81h1.3l-2,4.42,2.3,5.6H91.42l-1.92-4.7-.64,1.16V91h-1.4Z"/><path class="cls-1" d="M15.4,99a1.53,1.53,0,0,1-.72-.17,1.36,1.36,0,0,1-.5-.45,2.16,2.16,0,0,1-.27-.62,2.86,2.86,0,0,1-.09-.73A2.9,2.9,0,0,1,14,96a1.5,1.5,0,0,1,.53-.71A1.39,1.39,0,0,1,15.4,95a1.33,1.33,0,0,1,.72.16,1.35,1.35,0,0,1,.44.45l-.34.2a1.26,1.26,0,0,0-.34-.35.85.85,0,0,0-.48-.12,1.1,1.1,0,0,0-.55.14,1.06,1.06,0,0,0-.37.39,2.16,2.16,0,0,0-.2.52,2.62,2.62,0,0,0-.06.57,2.53,2.53,0,0,0,.12.8,1.23,1.23,0,0,0,.39.59,1,1,0,0,0,.67.23.85.85,0,0,0,.65-.25.93.93,0,0,0,.25-.69v-.23h-.7V97.1h1.1v.41a1.43,1.43,0,0,1-.37,1.06A1.24,1.24,0,0,1,15.4,99Z"/><path class="cls-1" d="M18.66,98.88v-3.8h1.39a1.18,1.18,0,0,1,.9.3A1.15,1.15,0,0,1,21,96.8a1.13,1.13,0,0,1-.71.37l.84,1.71h-.42l-.81-1.7H19v1.7Zm.38-2h1a.83.83,0,0,0,.61-.2.69.69,0,0,0,.19-.5.75.75,0,0,0-.19-.5.76.76,0,0,0-.61-.22H19Z"/><path class="cls-1" d="M25.31,98.88l-.35-1H23.48l-.33,1h-.4l1.32-3.8h.29l1.33,3.8Zm-.47-1.32L24.32,96c-.06-.16-.09-.27-.11-.34l0,.14a.68.68,0,0,1-.06.2l-.52,1.52Z"/><path class="cls-1" d="M27.41,98.88v-3.8h2.21v.37H27.79v1.29H29v.36H27.79v1.78Z"/><path class="cls-1" d="M31.39,98.88v-3.8h.38v3.8Z"/><path class="cls-1" d="M34.89,99a1.4,1.4,0,0,1-.8-.23,1.15,1.15,0,0,1-.47-.54L34,98a1,1,0,0,0,.36.41,1,1,0,0,0,.55.15.89.89,0,0,0,.59-.18.62.62,0,0,0,.22-.52.68.68,0,0,0-.24-.53,2.11,2.11,0,0,0-.62-.35l-.41-.17c-.11-.06-.22-.14-.34-.22a.87.87,0,0,1-.36-.73.8.8,0,0,1,.3-.63,1.22,1.22,0,0,1,.82-.25,1.26,1.26,0,0,1,.69.17.72.72,0,0,1,.36.43l-.35.12a.61.61,0,0,0-.26-.27.85.85,0,0,0-.46-.11.81.81,0,0,0-.52.15.44.44,0,0,0-.19.39.48.48,0,0,0,.07.26.63.63,0,0,0,.2.2,1.22,1.22,0,0,0,.27.15l.33.15a2.1,2.1,0,0,1,.4.18,2.14,2.14,0,0,1,.34.24,1.08,1.08,0,0,1,.36.81,1,1,0,0,1-.33.78A1.33,1.33,0,0,1,34.89,99Z"/><path class="cls-1" d="M39.38,99a1.47,1.47,0,0,1-.72-.17,1.28,1.28,0,0,1-.5-.45,2.16,2.16,0,0,1-.27-.62A2.86,2.86,0,0,1,37.8,97,2.67,2.67,0,0,1,38,96a1.5,1.5,0,0,1,.53-.71,1.37,1.37,0,0,1,.89-.28,1.33,1.33,0,0,1,.72.16,1.35,1.35,0,0,1,.44.45l-.34.2a1.26,1.26,0,0,0-.34-.35.88.88,0,0,0-.48-.12,1.1,1.1,0,0,0-.55.14,1.06,1.06,0,0,0-.37.39,2.16,2.16,0,0,0-.2.52,2.62,2.62,0,0,0-.06.57,2.86,2.86,0,0,0,.11.8,1.32,1.32,0,0,0,.4.59,1,1,0,0,0,.67.23.94.94,0,0,0,.87-.48l.34.13a1.27,1.27,0,0,1-.45.5A1.41,1.41,0,0,1,39.38,99Z"/><path class="cls-1" d="M44.65,98.88v-1.8H42.79v1.8h-.38v-3.8h.38v1.65h1.86V95.08H45v3.8Z"/><path class="cls-1" d="M52,98.77a1.61,1.61,0,0,1-1.48,0,1.21,1.21,0,0,1-.49-.46,2.62,2.62,0,0,1-.26-.62,3.22,3.22,0,0,1-.08-.71,3.29,3.29,0,0,1,.08-.71,2.62,2.62,0,0,1,.26-.62,1.28,1.28,0,0,1,.49-.46,1.7,1.7,0,0,1,1.48,0,1.28,1.28,0,0,1,.49.46,2.26,2.26,0,0,1,.26.62,2.76,2.76,0,0,1,.09.71,2.71,2.71,0,0,1-.09.71,2.26,2.26,0,0,1-.26.62A1.21,1.21,0,0,1,52,98.77Zm-.74-.17a1,1,0,0,0,.55-.14,1,1,0,0,0,.37-.39,1.87,1.87,0,0,0,.2-.51,2.87,2.87,0,0,0,0-1.37,1.21,1.21,0,0,0-.38-.59,1,1,0,0,0-.69-.24,1.1,1.1,0,0,0-.55.14,1.06,1.06,0,0,0-.37.39,1.79,1.79,0,0,0-.19.52A2.62,2.62,0,0,0,50,97a2.74,2.74,0,0,0,.11.79,1.28,1.28,0,0,0,.38.59A1,1,0,0,0,51.21,98.6Z"/><path class="cls-1" d="M57.35,98.88H57L55.19,96,55,95.78v3.1h-.38v-3.8h.39L56.81,98l.16.26V95.08h.38Z"/><path class="cls-1" d="M60.59,95.45v3.43h-.38V95.45h-1v-.37h2.47v.37Z"/><path class="cls-1" d="M63.93,98.88l-.74-3.8h.41l.46,2.61.06.38s0-.16.1-.37L65,95.08h.29L66,97.7a2,2,0,0,1,.08.31l.07-.32.55-2.61h.39l-.82,3.8H66l-.81-2.72c0-.15-.08-.26-.1-.34,0,.08-.06.19-.1.34l-.82,2.72Z"/><path class="cls-1" d="M68.83,98.88v-3.8H71v.37H69.21v1.29h1.2v.36h-1.2v1.42h1.9v.36Z"/><path class="cls-1" d="M73,98.88v-3.8h1.39a1.19,1.19,0,0,1,.9.3,1.15,1.15,0,0,1,0,1.42,1.16,1.16,0,0,1-.71.37l.84,1.71H75l-.82-1.7h-.85v1.7Zm.38-2h1a.83.83,0,0,0,.61-.2.69.69,0,0,0,.19-.5.75.75,0,0,0-.19-.5.76.76,0,0,0-.61-.22h-1Z"/><path class="cls-1" d="M77.46,98.88v-3.8h1.39a1.17,1.17,0,0,1,.91.32,1.19,1.19,0,0,1,.29.8,1.09,1.09,0,0,1-1.2,1.11h-1v1.57ZM78.88,97a.78.78,0,0,0,.61-.23.79.79,0,0,0,.19-.54.84.84,0,0,0-.18-.54.74.74,0,0,0-.62-.24h-1V97Z"/><path class="cls-1" d="M75,46.9c5.4,3.3,9.12,5.35,10.69,5.76l8.18-8.17c-2-.68-7.76-4.19-12.84-7.07-4.14-2.36-7.86-3.36-11.32-1.89l-.15-.16A13.37,13.37,0,0,0,68,21.55V11a12.56,12.56,0,0,0-1-1.11C63.79,6.61,60.18,5.3,56.41,5.72A17.09,17.09,0,0,0,49,8.7c-.44-.49-.89-1-1.37-1.46C43.39,3.06,39,.77,34.67,0V10.58a19.81,19.81,0,0,0-6.38-.09,24.93,24.93,0,0,0-10.47,4.17,51.11,51.11,0,0,0-7.76,6.52A101.11,101.11,0,0,0,0,32.71L17.82,50.53V44.18L34.67,61h0C42,53.9,44,52,49.23,46.9L43,40.63c-2.28,2.43-4,4.36-6.14,6.53L34.67,45,17.82,28.15V34.5l-4.09-4.1A24,24,0,0,1,17,26.47c.26-.26.53-.5.79-.74C23.06,20.94,29,19.83,34.67,23V12.39A20.54,20.54,0,0,1,39.35,16l.62.67c6.35,6.75,6.91,13.63,3,19.74l6.26,6.26L67.15,60.58,68,59.7V70.29l7-7-7-7V45.63l-6.85-6.85,2.42-2.41A7.69,7.69,0,0,1,68,33.89V44.47C69.9,44.26,72,45,75,46.9m-16.39-17L55.41,33l-.51-.51-9.23-9.24A28,28,0,0,1,49,19.39a10.33,10.33,0,0,1,5-3,6.22,6.22,0,0,1,5.74,2c3.09,3.09,2.73,7.44-1.25,11.42"/></g></g></svg>