<svg xmlns="http://www.w3.org/2000/svg" viewBox="0 0 93.87 70.29"><defs><style>.cls-1{fill:#1e1e1c;}</style></defs><title>Middel 1</title><g id="Laag_2" data-name="Laag 2"><g id="Laag_1-2" data-name="Laag 1"><path class="cls-1" d="M75,46.9c5.4,3.3,9.12,5.35,10.69,5.76l8.18-8.17c-2-.68-7.76-4.19-12.84-7.07-4.14-2.36-7.86-3.36-11.32-1.89l-.15-.16A13.37,13.37,0,0,0,68,21.55V11a11.65,11.65,0,0,0-1-1.11C63.79,6.61,60.18,5.3,56.41,5.72A17.1,17.1,0,0,0,49,8.7c-.44-.49-.89-1-1.37-1.46C43.39,3.06,39,.77,34.67,0V10.58a20.08,20.08,0,0,0-6.38-.09,24.94,24.94,0,0,0-10.47,4.17,50.4,50.4,0,0,0-7.76,6.52A101.2,101.2,0,0,0,0,32.71L17.82,50.53V44.18L34.67,61h0C42,53.9,44,52,49.23,46.9L43,40.63c-2.28,2.43-4,4.36-6.14,6.53L34.67,45,17.82,28.15V34.5l-4.09-4.1A24.11,24.11,0,0,1,17,26.47c.26-.26.53-.5.79-.74C23.06,20.94,29,19.83,34.67,23V12.39A20.53,20.53,0,0,1,39.35,16l.62.67c6.35,6.75,6.91,13.63,3,19.74l6.26,6.26L67.15,60.58,68,59.7V70.29l7-7-7-7V45.63l-6.85-6.85,2.42-2.41A7.71,7.71,0,0,1,68,33.89V44.47c1.9-.21,4,.53,7,2.43m-16.39-17L55.41,33l-.51-.51-9.23-9.24A27.22,27.22,0,0,1,49,19.39a10.31,10.31,0,0,1,5-3,6.22,6.22,0,0,1,5.74,2c3.09,3.09,2.73,7.44-1.25,11.42"/></g></g></svg>