<svg xmlns="http://www.w3.org/2000/svg" viewBox="0 0 226.77 311.81"><defs><style>.cls-1{fill:#f39c51;}.cls-2{fill:#035949;}.cls-3{fill:#014059;}.cls-4{fill:#03744b;}.cls-5{fill:#068d4c;}</style></defs><title>Middel 1</title><g id="Laag_2" data-name="Laag 2"><g id="Laag_2-2" data-name="Laag 2"><path class="cls-1" d="M226.77,0V311.81c-25.26-19.24-25.91-63.08-18.11-87.31,7.93-24.63,25.73-70.41-.65-109.82C182.55,76.64,130.08,72.07,112.7,0Z"/><path class="cls-2" d="M226.77,311.81H200.91c-30.88-6.1-61.51-31.59-76.22-52.45-19.17-27.19-52.56-80.63-112.07-87A101.66,101.66,0,0,0,0,171.79V83.53c41.91,34.81,82.8,24.38,117.48,46.13,42.15,26.42,47.66,78.51,52.09,105.8C173.94,262.32,195.09,304.38,226.77,311.81Z"/><path class="cls-3" d="M208,114.68c26.38,39.41,8.58,85.19.65,109.82-7.8,24.23-7.15,68.07,18.11,87.31-31.68-7.43-52.83-49.49-57.2-76.35-4.43-27.29-9.94-79.38-52.09-105.8C82.8,107.91,41.91,118.34,0,83.53V0H112.7C130.08,72.07,182.55,76.64,208,114.68Z"/><path class="cls-4" d="M200.91,311.81H152.19c-15-5.41-28.6-12.95-38.34-20.53C90.45,273.05,50.15,238.13,0,238.74v-67a101.66,101.66,0,0,1,12.62.56c59.51,6.38,92.9,59.82,112.07,87C139.4,280.22,170,305.71,200.91,311.81Z"/><path class="cls-5" d="M152.19,311.81H0V238.74c50.15-.61,90.45,34.31,113.85,52.54C123.59,298.86,137.19,306.4,152.19,311.81Z"/></g></g></svg>