<svg xmlns="http://www.w3.org/2000/svg" viewBox="0 0 283.46 311.81"><defs><style>.cls-1{isolation:isolate;}.cls-2{fill:#ddedf1;}.cls-3{fill:#61acac;}.cls-3,.cls-5,.cls-6{mix-blend-mode:multiply;}.cls-12,.cls-4,.cls-5{fill:#f0ebc0;}.cls-4{opacity:0.85;}.cls-6{fill:#85c1cf;}.cls-7{fill:#e3b467;}.cls-8{fill:#5081c2;}.cls-9{fill:#6fbbe4;}.cls-10{fill:#b5d0d5;}.cls-11{fill:#f6f6f6;}.cls-13{fill:#4a80a6;}.cls-14{fill:#9bbdb1;}</style></defs><title>VISOFT_OPDR_BASISVORMEN_GEPLAATST</title><g class="cls-1"><g id="Laag_1" data-name="Laag 1"><path class="cls-2" d="M232.6,86.43h10.22a17.2,17.2,0,0,0,0-34.4,17.5,17.5,0,0,0-3.71.4,22.73,22.73,0,0,0-40.66,2.31L232.6,74.47Z"/><polygon class="cls-3" points="160.82 47.02 143.87 37.22 128.24 28.2 126.92 27.44 125.6 28.2 109.97 37.22 93.01 47.02 76.06 56.8 76.06 95.95 59.11 105.74 54 108.69 42.16 115.53 42.16 200.75 50.21 196.1 69.6 184.9 69.6 162.52 88.98 151.33 108.37 140.14 127.75 128.95 130.89 127.14 147.14 117.75 166.52 128.95 169.62 130.74 169.62 52.1 160.82 47.02"/><path class="cls-4" d="M143.26,94.26V276.89c-.51,0-1,0-1.53,0a106.6,106.6,0,0,1-74.58-30.29v-167l12.68-7.33L92.52,65l7,4.06,2.6,1.5L104.71,72l.49.28,12.69,7.33,12.68,7.32Z"/><path class="cls-5" d="M243.62,166.74l-11-6.36v31.54l-8.36,4.82V238a106.51,106.51,0,0,0,24.47-68.1v-.25Z"/><path class="cls-6" d="M215.64,64.68,198.7,54.89l-17-9.79-12.12,7-4.83,2.79-14.54,8.4-2.42,1.39-16.94,9.79v52.67l16.25-9.39L166.52,129l11.26,6.5v46.93l-11.7,6.75v85a102.83,102.83,0,0,0,11.7-3.44q4.16-1.47,8.13-3.29a106.64,106.64,0,0,0,28.6-19.06,105.32,105.32,0,0,0,9.73-10.3V196.74l8.36-4.82V74.47Z"/><path class="cls-7" d="M224.24,200.32v-3.58l8.36-4.82V160.38l-8.36-4.83-19.39,11.19-18.94,10.95-.44.25-7.69,4.44-11.7,6.75v85a102.83,102.83,0,0,0,11.7-3.44q4.16-1.47,8.13-3.29a106.64,106.64,0,0,0,28.6-19.06,105.32,105.32,0,0,0,9.73-10.3V200.32Z"/><path class="cls-8" d="M39.7,202.17c.73,2.36,1.56,4.68,2.46,7v-8.38Z"/><path class="cls-9" d="M147.14,220.88l-16.25-9.39V127.14L127.75,129l-19.38,11.19L89,151.33,69.6,162.52v86.41a106.58,106.58,0,0,0,72.13,28c1.81,0,3.62-.05,5.41-.14V220.88Z"/><path class="cls-6" d="M69.6,207.29V184.9L50.21,196.1l-8.05,4.65v8.38a107,107,0,0,0,27.44,39.8V207.29Z"/><path class="cls-10" d="M71.1,84.14a11.31,11.31,0,0,0-11.29,11.3c0,.21,0,.42,0,.62a1.53,1.53,0,0,0,0,.3A5.79,5.79,0,0,1,54,102.15H44.45a2.29,2.29,0,1,0,0,4.58H71.1a11.3,11.3,0,1,0,0-22.59Z"/><path class="cls-11" d="M150,126.72a15,15,0,0,0,15,15h38.81a1.78,1.78,0,0,0,0-3.56h-7.42a4.49,4.49,0,0,1-4.49-4.48,1.69,1.69,0,0,0,0-.23c0-.16,0-.33,0-.49a8.76,8.76,0,0,0-12.05-8.12A15,15,0,0,0,150,126.72Z"/><path class="cls-8" d="M166.08,233.9V189.13l11.7-6.75V135.45L166.52,129l-19.38-11.2-16.25,9.39v84.35l16.25,9.39v55.89a106.43,106.43,0,0,0,18.94-2.65V233.9Z"/><path class="cls-12" d="M243.62,166.74l-11-6.36v31.54l-8.36,4.82V238a106.51,106.51,0,0,0,24.47-68.1v-.25Z"/><polygon class="cls-12" points="131.03 228.38 139.8 233.45 139.8 223.31 131.03 218.25 131.03 228.38"/><polygon class="cls-12" points="131.03 268.92 139.8 273.98 139.8 263.85 131.03 258.78 131.03 268.92"/><polygon class="cls-12" points="131.03 248.65 139.8 253.72 139.8 243.58 131.03 238.51 131.03 248.65"/><polygon class="cls-12" points="78.38 208.12 87.15 213.18 87.15 203.05 78.38 197.98 78.38 208.12"/><polygon class="cls-12" points="78.38 187.85 87.15 192.91 87.15 182.78 78.38 177.72 78.38 187.85"/><polygon class="cls-12" points="113.48 248.65 122.25 253.71 122.25 243.58 113.48 238.51 113.48 248.65"/><polygon class="cls-12" points="113.48 268.91 122.25 273.98 122.25 263.84 113.48 258.78 113.48 268.91"/><polygon class="cls-12" points="95.93 238.51 104.7 243.58 104.7 233.45 95.93 228.38 95.93 238.51"/><polygon class="cls-12" points="95.93 258.78 104.7 263.85 104.7 253.72 95.93 248.65 95.93 258.78"/><polygon class="cls-12" points="78.38 228.38 87.15 233.45 87.15 223.31 78.38 218.25 78.38 228.38"/><polygon class="cls-12" points="78.38 248.65 87.15 253.72 87.15 243.58 78.38 238.51 78.38 248.65"/><polygon class="cls-12" points="113.48 228.38 122.25 233.45 122.25 223.31 113.48 218.25 113.48 228.38"/><polygon class="cls-12" points="95.93 218.25 104.7 223.31 104.7 213.18 95.93 208.12 95.93 218.25"/><polygon class="cls-12" points="113.48 208.12 122.25 213.18 122.25 203.05 113.48 197.98 113.48 208.12"/><polygon class="cls-12" points="95.93 197.98 104.7 203.05 104.7 192.91 95.93 187.85 95.93 197.98"/><polygon class="cls-8" points="131.03 147.32 131.03 157.45 139.8 162.52 139.8 152.38 131.03 147.32"/><polygon class="cls-13" points="131.03 137.18 131.03 127.05 122.25 132.12 113.48 137.18 104.7 142.25 95.93 147.32 87.15 152.38 78.38 157.45 69.6 162.52 78.38 167.58 87.15 172.65 95.93 177.72 104.7 182.78 113.48 187.85 122.25 192.91 131.03 197.98 131.03 187.85 131.03 177.72 131.03 167.58 131.03 157.45 131.03 147.32 131.03 137.18"/><polygon class="cls-14" points="174.85 265.13 183.63 260.06 183.63 249.92 174.85 254.99 174.85 265.13"/><polygon class="cls-14" points="192.4 254.99 201.18 249.92 201.18 239.79 192.4 244.86 192.4 254.99"/><polygon class="cls-14" points="174.85 244.86 183.63 239.79 183.63 229.66 174.85 234.73 174.85 244.86"/><polygon class="cls-14" points="209.96 244.86 218.73 239.79 218.73 229.66 209.96 234.73 209.96 244.86"/><polygon class="cls-14" points="192.4 234.73 201.18 229.66 201.18 219.53 192.4 224.59 192.4 234.73"/><polygon class="cls-14" points="174.85 224.59 183.63 219.53 183.63 209.39 174.85 214.46 174.85 224.59"/><polygon class="cls-14" points="209.96 224.59 218.73 219.53 218.73 209.39 209.96 214.46 209.96 224.59"/><polygon class="cls-14" points="192.4 214.46 201.18 209.39 201.18 199.26 192.4 204.33 192.4 214.46"/><polygon class="cls-14" points="174.85 204.33 183.63 199.26 183.63 189.13 174.85 194.19 174.85 204.33"/><polygon class="cls-14" points="209.96 204.33 218.73 199.26 218.73 189.13 209.96 194.19 209.96 204.33"/><polygon class="cls-14" points="192.4 194.19 201.18 189.13 201.18 179 192.4 184.06 192.4 194.19"/><polygon class="cls-14" points="209.96 173.93 209.96 184.06 218.73 179 218.73 168.86 209.96 173.93"/></g></g></svg>